#!OML:ASF E:\Steps\Project 1\Capture day 1\Session 2\Subject.ASF
:FULLY-SPECIFIED
:DEGREES
129
root 9.66723 13.8256 12.2706 -132.854 -5.08672 179.142
lowerback -9.30272 3.19699 -8.13247
upperback -0.441955 5.12227 -3.00088
thorax 4.31461 2.33814 2.04462
lowerneck 0.361374 0.372438 -2.43227
upperneck 8.85374 -0.247103 6.12273
head 2.79156 -0.154541 2.41178
rclavicle 1.88845e-014 3.57812e-015
rhumerus -26.2562 39.3562 -97.3619
rradius 83.94
rwrist -16.9389
rhand -5.4228 -40.7558
rfingers 7.12502
rthumb 20.3871 -69.7056
lclavicle 1.88845e-014 3.57812e-015
lhumerus -62.5918 -11.3028 75.1609
lradius 77.7435
lwrist 19.703
lhand -31.4104 -28.8171
lfingers 7.12502
lthumb -4.67946 1.11118
rfemur -85.8931 8.7835 18.4728
rtibia 70.0281
rfoot -41.536 -15.7616
rtoes -15.3548
lfemur -88.8745 -2.85236 -14.4671
ltibia 71.1307
lfoot -25.0249 -8.66943
ltoes -17.0406
130
root 9.66707 13.6882 12.2883 -132.638 -4.70842 179.187
lowerback -8.95354 3.24929 -8.13708
upperback -0.470567 5.15334 -3.14391
thorax 4.0988 2.36227 1.8769
lowerneck 0.322785 0.344742 -2.32144
upperneck 8.86233 -0.286605 6.10556
head 2.80259 -0.170568 2.38532
rclavicle 6.16232e-015 1.11319e-014
rhumerus -25.67 40.5341 -97.2612
rradius 84.2073
rwrist -16.6638
rhand -3.78261 -40.4569
rfingers 7.12502
rthumb 21.9627 -69.2301
lclavicle 6.16232e-015 1.11319e-014
lhumerus -63.0441 -11.0438 74.9774
lradius 78.4969
lwrist 19.7447
lhand -31.7929 -29.1656
lfingers 7.12502
lthumb -5.04876 0.754246
rfemur -87.1842 9.15812 18.187
rtibia 71.4726
rfoot -41.8872 -15.7752
rtoes -14.96
lfemur -90.1799 -2.38867 -14.9045
ltibia 72.9538
lfoot -25.605 -9.16073
ltoes -13.2468
131
root 9.66162 13.5514 12.3075 -132.313 -4.21038 179.227
lowerback -8.76871 3.27374 -8.17123
upperback -0.516113 5.16375 -3.2772
thorax 3.95563 2.37147 1.74377
lowerneck 0.340172 0.337098 -2.28626
upperneck 8.8755 -0.300178 6.09449
head 2.8041 -0.177477 2.37487
rclavicle 5.1684e-015 -1.25234e-014
rhumerus -25.0607 41.9579 -97.0162
rradius 84.6161
rwrist -16.9905
rhand -6.08389 -38.5295
rfingers 7.12502
rthumb 19.7517 -67.546
lclavicle 5.1684e-015 -1.25234e-014
lhumerus -63.4455 -10.7718 74.8859
lradius 79.3189
lwrist 19.8459
lhand -32.4325 -29.6994
lfingers 7.12502
lthumb -5.66632 0.204862
rfemur -88.6199 9.55401 17.7703
rtibia 72.9351
rfoot -42.2957 -15.585
rtoes -14.549
lfemur -91.5646 -1.9599 -15.4014
ltibia 74.7119
lfoot -26.3219 -9.08422
ltoes -11.888
132
root 9.65603 13.4181 12.3279 -132.018 -3.61621 179.287
lowerback -8.59638 3.27766 -8.33939
upperback -0.554983 5.15915 -3.35674
thorax 3.81111 2.37052 1.73892
lowerneck 0.369067 0.337781 -2.22495
upperneck 8.90076 -0.303391 6.05916
head 2.80661 -0.179675 2.35173
rclavicle -1.53064e-014 1.21259e-014
rhumerus -24.4687 43.291 -96.7947
rradius 84.934
rwrist -17.2981
rhand -3.9274 -40.204
rfingers 7.12502
rthumb 21.8237 -68.9935
lclavicle -1.53064e-014 1.21259e-014
lhumerus -63.7838 -10.4595 74.9101
lradius 80.1874
lwrist 19.9062
lhand -32.8516 -30.3566
lfingers 7.12502
lthumb -6.07099 -0.46357
rfemur -90.0603 10.0051 17.3319
rtibia 74.5522
rfoot -42.8154 -15.4441
rtoes -14.4622
lfemur -92.9119 -1.52844 -15.8803
ltibia 76.4649
lfoot -27.0213 -8.859
ltoes -10.4797
133
root 9.65398 13.29 12.3406 -131.91 -3.17585 179.439
lowerback -8.31124 3.28924 -8.39329
upperback -0.537967 5.14991 -3.36182
thorax 3.66591 2.37162 1.74325
lowerneck 0.397262 0.343131 -2.14448
upperneck 8.92394 -0.299492 6.01131
head 2.80794 -0.17802 2.32102
rclavicle 7.65321e-015 -3.27995e-015
rhumerus -23.8346 44.3468 -96.5882
rradius 85.0727
rwrist -17.4993
rhand -2.3477 -40.6857
rfingers 7.12502
rthumb 23.3399 -69.2907
lclavicle 7.65321e-015 -3.27995e-015
lhumerus -63.9393 -10.216 74.9978
lradius 80.8644
lwrist 19.8159
lhand -33.1827 -31.1033
lfingers 7.12502
lthumb -6.3906 -1.21969
rfemur -91.2027 10.4523 17.1793
rtibia 76.0972
rfoot -43.3025 -15.4837
rtoes -14.9659
lfemur -93.9852 -1.0733 -16.1987
ltibia 78.1695
lfoot -27.7703 -8.56157
ltoes -9.54002
134
root 9.64909 13.165 12.3531 -131.814 -2.66779 179.523
lowerback -8.00225 3.26626 -8.42224
upperback -0.522119 5.08791 -3.3984
thorax 3.51567 2.34629 1.69493
lowerneck 0.346093 0.345426 -2.12974
upperneck 8.94685 -0.29698 5.99051
head 2.8247 -0.176202 2.31215
rclavicle 4.45278e-014 -3.46879e-014
rhumerus -23.2579 45.1868 -96.3774
rradius 85.2902
rwrist -17.1489
rhand -6.35597 -38.2607
rfingers 7.12502
rthumb 19.4901 -67.3039
lclavicle 4.45278e-014 -3.46879e-014
lhumerus -63.8801 -9.90266 75.1025
lradius 81.2619
lwrist 19.6754
lhand -33.6154 -31.6966
lfingers 7.12502
lthumb -6.80827 -1.82605
rfemur -92.3482 10.8125 16.9694
rtibia 77.5619
rfoot -43.6244 -15.4375
rtoes -15.4981
lfemur -94.9452 -0.63434 -16.6471
ltibia 79.7794
lfoot -28.5809 -8.17924
ltoes -8.70975
135
root 9.63488 13.0464 12.3613 -131.832 -1.93621 179.543
lowerback -7.65538 3.24917 -8.55206
upperback -0.478133 5.0386 -3.44363
thorax 3.36471 2.32438 1.6925
lowerneck 0.321028 0.336488 -2.12548
upperneck 8.97405 -0.312176 5.97845
head 2.83909 -0.184287 2.30757
rclavicle 4.09496e-014 -5.76476e-015
rhumerus -22.897 45.8112 -96.1506
rradius 85.7621
rwrist -16.2298
rhand -2.40802 -39.2528
rfingers 7.12502
rthumb 23.282 -67.8652
lclavicle 4.09496e-014 -5.76476e-015
lhumerus -63.7234 -9.57587 75.3018
lradius 81.596
lwrist 19.5883
lhand -33.9739 -32.2339
lfingers 7.12502
lthumb -7.15434 -2.37486
rfemur -93.3363 11.1481 16.6258
rtibia 78.9239
rfoot -43.8445 -15.4235
rtoes -16.1938
lfemur -95.6673 -0.264083 -17.2315
ltibia 81.2622
lfoot -29.292 -8.04105
ltoes -8.09874
136
root 9.61695 12.9409 12.3601 -132.088 -1.14332 179.658
lowerback -7.16845 3.29564 -8.60242
upperback -0.394272 5.05692 -3.47682
thorax 3.17694 2.3399 1.65727
lowerneck 0.463696 0.335574 -2.06518
upperneck 8.98709 -0.322706 5.94841
head 2.81682 -0.193668 2.28507
rclavicle -7.66315e-014 4.90998e-014
rhumerus -22.595 46.4025 -95.9642
rradius 86.137
rwrist -15.4411
rhand -1.24412 -39.1684
rfingers 7.12502
rthumb 24.3982 -67.635
lclavicle -7.66315e-014 4.90998e-014
lhumerus -63.4125 -9.48759 75.5562
lradius 81.9438
lwrist 19.6056
lhand -34.1959 -32.7393
lfingers 7.12502
lthumb -7.36863 -2.88767
rfemur -93.9055 11.5723 16.4081
rtibia 80.1273
rfoot -44.0257 -15.3382
rtoes -17.0157
lfemur -95.9962 0.134643 -17.7455
ltibia 82.56
lfoot -29.9023 -7.81837
ltoes -7.35807
137
root 9.60314 12.8422 12.3602 -132.309 -0.339572 179.808
lowerback -6.70658 3.32118 -8.59277
upperback -0.350534 5.03901 -3.55985
thorax 2.97354 2.338 1.53512
lowerneck 0.56604 0.346686 -1.99388
upperneck 8.99678 -0.315735 5.9177
head 2.80001 -0.193128 2.26105
rclavicle -9.91687e-014 5.1858e-014
rhumerus -22.1617 47.0231 -95.893
rradius 86.0559
rwrist -14.7367
rhand -5.90617 -35.2561
rfingers 7.12502
rthumb 19.9226 -64.2549
lclavicle -9.91687e-014 5.1858e-014
lhumerus -62.9147 -9.51763 75.715
lradius 82.3589
lwrist 19.7704
lhand -34.2263 -32.8814
lfingers 7.12502
lthumb -7.39803 -3.03079
rfemur -94.4501 12.0684 16.1742
rtibia 81.232
rfoot -44.1875 -15.14
rtoes -17.6732
lfemur -96.3412 0.642691 -18.2753
ltibia 83.805
lfoot -30.5608 -7.59139
ltoes -5.9813
138
root 9.59054 12.7456 12.3629 -132.427 0.428477 179.952
lowerback -6.4015 3.05388 -8.52874
upperback -0.316306 4.96459 -3.60795
thorax 2.87428 2.44467 1.43664
lowerneck 0.586286 0.368703 -2.02628
upperneck 9.00176 -0.289301 5.91029
head 2.79685 -0.183136 2.26482
rclavicle -5.59952e-014 -6.57232e-015
rhumerus -21.5384 47.5742 -95.6511
rradius 85.9064
rwrist -14.2436
rhand 2.82316 -39.2458
rfingers 7.12502
rthumb 28.2916 -67.1292
lclavicle -5.59952e-014 -6.57232e-015
lhumerus -62.2835 -9.42117 75.8481
lradius 82.8261
lwrist 19.71
lhand -34.0876 -33.0686
lfingers 7.12502
lthumb -7.26416 -3.21326
rfemur -95.1045 12.5511 15.8871
rtibia 82.3249
rfoot -44.4392 -14.7409
rtoes -18.329
lfemur -96.8253 1.17291 -18.8131
ltibia 85.0691
lfoot -31.2615 -7.41981
ltoes -4.28115
139
root 9.58027 12.6579 12.3648 -132.493 1.11031 180.14
lowerback -6.13316 2.93522 -8.43368
upperback -0.318113 4.76649 -3.58193
thorax 2.74339 2.35229 1.38037
lowerneck 0.650184 0.373946 -2.08309
upperneck 9.00967 -0.288597 5.91415
head 2.7881 -0.187918 2.27593
rclavicle -3.20043e-014 -1.14301e-015
rhumerus -20.969 47.9745 -95.3541
rradius 85.8959
rwrist -14.131
rhand -5.0789 -34.7156
rfingers 7.12502
rthumb 20.7176 -63.6297
lclavicle -3.20043e-014 -1.14301e-015
lhumerus -61.6197 -9.3676 76.0257
lradius 83.3108
lwrist 19.315
lhand -33.9872 -33.5716
lfingers 7.12502
lthumb -7.16723 -3.71294
rfemur -95.7749 13.0399 15.6304
rtibia 83.3929
rfoot -44.7852 -14.0914
rtoes -18.2028
lfemur -97.303 1.68799 -19.2096
ltibia 86.2138
lfoot -31.7976 -7.24845
ltoes -2.919
140
root 9.56867 12.57 12.3613 -132.27 1.84247 180.297
lowerback -6.23941 2.73715 -8.38075
upperback -0.46217 4.50874 -3.58201
thorax 2.67804 2.23428 1.33592
lowerneck 0.668186 0.353145 -2.06321
upperneck 9.05079 -0.327535 5.90974
head 2.80028 -0.209914 2.27036
rclavicle 4.17448e-015 -2.18663e-015
rhumerus -20.9117 48.0085 -95.5104
rradius 85.9599
rwrist -13.9879
rhand -3.42306 -35.8576
rfingers 7.12502
rthumb 22.3079 -64.5898
lclavicle 4.17448e-015 -2.18663e-015
lhumerus -60.8499 -9.52428 76.2817
lradius 83.6768
lwrist 19.0975
lhand -34.0431 -34.293
lfingers 7.12502
lthumb -7.22121 -4.43617
rfemur -96.7746 13.4481 15.2531
rtibia 84.4867
rfoot -45.1318 -13.2914
rtoes -17.7157
lfemur -98.0372 2.14376 -19.5979
ltibia 87.2787
lfoot -32.2536 -7.04232
ltoes -1.81166
141
root 9.52261 12.5175 12.3249 -133.491 2.57913 180.258
lowerback -4.98512 2.59483 -7.96549
upperback -0.177075 4.16598 -3.60495
thorax 2.32878 2.07282 0.999499
lowerneck 0.636502 0.360049 -2.11933
upperneck 9.09535 -0.325771 5.90737
head 2.82144 -0.212733 2.28062
rclavicle -1.27222e-014 7.65321e-014
rhumerus -21.0329 47.7247 -95.7329
rradius 86.1245
rwrist -13.4642
rhand -1.73006 -35.8565
rfingers 7.12502
rthumb 23.9323 -64.385
lclavicle -1.27222e-014 7.65321e-014
lhumerus -59.7958 -9.73866 76.7179
lradius 83.9563
lwrist 19.1396
lhand -34.4897 -34.6521
lfingers 7.12502
lthumb -7.65225 -4.8105
rfemur -95.6722 13.5896 15.1658
rtibia 84.9471
rfoot -45.377 -12.7811
rtoes -18.6767
lfemur -96.8032 2.10886 -20.0888
ltibia 87.8573
lfoot -32.7709 -6.81711
ltoes -0.577951
142
root 9.49488 12.4555 12.3095 -133.607 3.3081 180.389
lowerback -4.98939 2.34803 -7.68789
upperback -0.174659 3.82094 -3.55381
thorax 2.3726 1.90263 0.881363
lowerneck 0.744366 0.39749 -2.26055
upperneck 9.11513 -0.285531 5.9193
head 2.80737 -0.202614 2.3104
rclavicle -2.80286e-014 -7.07673e-014
rhumerus -21.1924 47.1043 -95.8779
rradius 86.394
rwrist -12.7267
rhand -4.34975 -34.1529
rfingers 7.12502
rthumb 21.4181 -62.9891
lclavicle -2.80286e-014 -7.07673e-014
lhumerus -58.6658 -10.1019 77.2899
lradius 84.4795
lwrist 19.1299
lhand -35.2766 -34.1707
lfingers 7.12502
lthumb -8.41169 -4.35824
rfemur -95.9328 13.8807 14.9081
rtibia 85.5521
rfoot -45.4179 -12.4093
rtoes -19.9149
lfemur -97.0389 2.39822 -20.5459
ltibia 88.7635
lfoot -33.2683 -6.61675
ltoes 0.916357
143
root 9.47437 12.4117 12.2894 -133.898 4.0337 180.415
lowerback -4.74413 2.08531 -7.514
upperback -0.257814 3.43589 -3.55838
thorax 2.18534 1.72367 0.745406
lowerneck 1.00722 0.416973 -2.35826
upperneck 9.12984 -0.281311 5.95029
head 2.76463 -0.213886 2.33645
rclavicle 3.97569e-016 -7.15625e-015
rhumerus -21.7156 46.1516 -96.3107
rradius 86.8767
rwrist -12.0939
rhand -3.23636 -35.226
rfingers 7.12502
rthumb 22.4871 -63.9367
lclavicle 3.97569e-016 -7.15625e-015
lhumerus -57.569 -10.7365 77.8246
lradius 85.0999
lwrist 19.0097
lhand -35.6655 -33.5699
lfingers 7.12502
lthumb -8.78705 -3.77287
rfemur -95.9149 14.1623 14.6087
rtibia 86.0395
rfoot -45.4249 -12.0448
rtoes -20.6438
lfemur -96.896 2.62828 -21.0241
ltibia 89.3726
lfoot -33.6433 -6.3691
ltoes 2.22845
